<svg width="80" height="80" viewBox="0 0 80 80" fill="none" xmlns="http://www.w3.org/2000/svg">
<g id="&#229;&#133;&#179;&#228;&#186;&#142;&#230;&#136;&#145;&#228;&#187;&#172;&#233;&#161;&#181;&#233;&#157;&#162;&#230;&#143;&#146;&#229;&#155;&#190;-_technology" clip-path="url(#clip0_533_17045)">
<g id="Group 1430104938">
<g id="Subtract">
<path fill-rule="evenodd" clip-rule="evenodd" d="M0.078125 40.0502C0.078125 20.455 15.9686 4.56445 35.5638 4.56445C51.951 4.56445 65.7473 15.6779 69.8253 30.7775C69.6578 30.7903 69.4891 30.805 69.3191 30.8218C65.2693 15.9789 51.6888 5.06445 35.5638 5.06445C16.2448 5.06445 0.578125 20.7311 0.578125 40.0502C0.578125 59.3692 16.2448 75.0359 35.5638 75.0359C40.1646 75.0359 44.5582 74.1474 48.5823 72.5326C48.6475 72.6874 48.721 72.8378 48.8022 72.9833C44.7113 74.6297 40.2432 75.5359 35.5638 75.5359C15.9686 75.5359 0.078125 59.6454 0.078125 40.0502ZM69.661 47.918C67.7779 56.1092 63.0182 63.203 56.5029 68.0787C56.6008 68.2138 56.6915 68.3544 56.7744 68.5001C63.5338 63.452 68.4346 56.0519 70.263 47.5136C70.0661 47.6506 69.8655 47.7855 69.661 47.918Z" fill="#F3F3F3"/>
<path d="M69.8253 30.7775L69.8367 30.9271C69.8813 30.9237 69.922 30.9006 69.9478 30.8641C69.9736 30.8276 69.9818 30.7815 69.9701 30.7384L69.8253 30.7775ZM69.3191 30.8218L69.1744 30.8613C69.1937 30.9318 69.261 30.9782 69.3338 30.971L69.3191 30.8218ZM48.5823 72.5326L48.7206 72.4744C48.6888 72.399 48.6024 72.363 48.5265 72.3934L48.5823 72.5326ZM48.8022 72.9833L48.8582 73.1225C48.8981 73.1064 48.9293 73.0739 48.9436 73.0333C48.958 72.9927 48.9542 72.9478 48.9332 72.9102L48.8022 72.9833ZM69.661 47.918L69.5794 47.7921C69.5467 47.8133 69.5235 47.8464 69.5148 47.8843L69.661 47.918ZM56.5029 68.0787L56.413 67.9586C56.3474 68.0077 56.3333 68.1004 56.3814 68.1667L56.5029 68.0787ZM56.7744 68.5001L56.644 68.5743C56.6653 68.6117 56.7016 68.6381 56.7437 68.6469C56.7858 68.6557 56.8297 68.646 56.8641 68.6202L56.7744 68.5001ZM70.263 47.5136L70.4097 47.545C70.4226 47.4848 70.3973 47.4228 70.3461 47.3887C70.2948 47.3546 70.2279 47.3553 70.1773 47.3905L70.263 47.5136ZM35.5638 4.41445C15.8858 4.41445 -0.071875 20.3721 -0.071875 40.0502H0.228125C0.228125 20.5378 16.0515 4.71445 35.5638 4.71445V4.41445ZM69.9701 30.7384C65.8749 15.575 52.0205 4.41445 35.5638 4.41445V4.71445C51.8815 4.71445 65.6197 15.7807 69.6805 30.8166L69.9701 30.7384ZM69.3338 30.971C69.5027 30.9544 69.6703 30.9398 69.8367 30.9271L69.8139 30.628C69.6453 30.6408 69.4754 30.6556 69.3044 30.6725L69.3338 30.971ZM35.5638 5.21445C51.6195 5.21445 65.1419 16.082 69.1744 30.8613L69.4638 30.7823C65.3967 15.8759 51.7582 4.91445 35.5638 4.91445V5.21445ZM0.728125 40.0502C0.728125 20.8139 16.3276 5.21445 35.5638 5.21445V4.91445C16.1619 4.91445 0.428125 20.6483 0.428125 40.0502H0.728125ZM35.5638 74.8859C16.3276 74.8859 0.728125 59.2864 0.728125 40.0502H0.428125C0.428125 59.4521 16.1619 75.1859 35.5638 75.1859V74.8859ZM48.5265 72.3934C44.5198 74.0012 40.1451 74.8859 35.5638 74.8859V75.1859C40.184 75.1859 44.5966 74.2936 48.6382 72.6719L48.5265 72.3934ZM48.9332 72.9102C48.8547 72.7695 48.7836 72.624 48.7206 72.4744L48.4441 72.5909C48.5115 72.7507 48.5873 72.9061 48.6712 73.0564L48.9332 72.9102ZM35.5638 75.6859C40.2627 75.6859 44.7498 74.7759 48.8582 73.1225L48.7462 72.8441C44.6728 74.4835 40.2237 75.3859 35.5638 75.3859V75.6859ZM-0.071875 40.0502C-0.071875 59.7282 15.8858 75.6859 35.5638 75.6859V75.3859C16.0515 75.3859 0.228125 59.5625 0.228125 40.0502H-0.071875ZM69.5148 47.8843C67.6399 56.0401 62.9007 63.1036 56.413 67.9586L56.5928 68.1988C63.1358 63.3024 67.9159 56.1783 69.8072 47.9516L69.5148 47.8843ZM56.3814 68.1667C56.4761 68.2974 56.5638 68.4334 56.644 68.5743L56.9047 68.4258C56.8191 68.2754 56.7254 68.1302 56.6244 67.9907L56.3814 68.1667ZM56.8641 68.6202C63.6519 63.551 68.5735 56.1198 70.4097 47.545L70.1163 47.4822C68.2958 55.984 63.4158 63.3529 56.6846 68.3799L56.8641 68.6202ZM70.1773 47.3905C69.9818 47.5266 69.7825 47.6605 69.5794 47.7921L69.7425 48.0438C69.9484 47.9104 70.1505 47.7747 70.3487 47.6367L70.1773 47.3905Z" fill="#F3F3F3"/>
</g>
<g id="Subtract_2">
<path fill-rule="evenodd" clip-rule="evenodd" d="M12.3926 40C12.3926 27.1199 22.8339 16.6786 35.714 16.6786C46.8275 16.6786 56.1254 24.4522 58.4668 34.8586C58.6141 34.7609 58.7628 34.6637 58.9131 34.567C56.4548 24.0287 47.0011 16.1786 35.714 16.1786C22.5578 16.1786 11.8926 26.8438 11.8926 40C11.8926 53.1562 22.5578 63.8214 35.714 63.8214C41.1091 63.8214 46.0854 62.0279 50.079 59.0045L50.2968 58.2008C46.3031 61.4048 41.2324 63.3214 35.714 63.3214C22.8339 63.3214 12.3926 52.8801 12.3926 40Z" fill="#F3F3F3"/>
<path d="M58.4668 34.8586L58.3205 34.8915C58.3313 34.9397 58.3652 34.9794 58.4109 34.9978C58.4567 35.0162 58.5087 35.0109 58.5498 34.9836L58.4668 34.8586ZM58.9131 34.567L58.9942 34.6932C59.0476 34.6588 59.0736 34.5947 59.0592 34.5329L58.9131 34.567ZM50.079 59.0045L50.1695 59.1241C50.196 59.1041 50.215 59.0758 50.2237 59.0438L50.079 59.0045ZM50.2968 58.2008L50.4416 58.2401C50.4586 58.1774 50.4333 58.1109 50.379 58.0753C50.3247 58.0398 50.2536 58.0432 50.203 58.0838L50.2968 58.2008ZM35.714 16.5286C22.7511 16.5286 12.2426 27.0371 12.2426 40H12.5426C12.5426 27.2028 22.9168 16.8286 35.714 16.8286V16.5286ZM58.6132 34.8257C56.2567 24.3523 46.8992 16.5286 35.714 16.5286V16.8286C46.7558 16.8286 55.9941 24.5521 58.3205 34.8915L58.6132 34.8257ZM58.8319 34.4409C58.6811 34.5379 58.5317 34.6355 58.3839 34.7336L58.5498 34.9836C58.6964 34.8863 58.8446 34.7894 58.9942 34.6932L58.8319 34.4409ZM35.714 16.3286C46.9299 16.3286 56.3242 24.1291 58.767 34.6011L59.0592 34.5329C56.5854 23.9282 47.0724 16.0286 35.714 16.0286V16.3286ZM12.0426 40C12.0426 26.9266 22.6406 16.3286 35.714 16.3286V16.0286C22.475 16.0286 11.7426 26.761 11.7426 40H12.0426ZM35.714 63.6714C22.6406 63.6714 12.0426 53.0734 12.0426 40H11.7426C11.7426 53.2391 22.475 63.9714 35.714 63.9714V63.6714ZM49.9884 58.8849C46.02 61.8893 41.0753 63.6714 35.714 63.6714V63.9714C41.1429 63.9714 46.1507 62.1665 50.1695 59.1241L49.9884 58.8849ZM50.152 58.1616L49.9342 58.9653L50.2237 59.0438L50.4416 58.2401L50.152 58.1616ZM35.714 63.4714C41.2678 63.4714 46.3713 61.5424 50.3907 58.3178L50.203 58.0838C46.2349 61.2672 41.1971 63.1714 35.714 63.1714V63.4714ZM12.2426 40C12.2426 52.9629 22.7511 63.4714 35.714 63.4714V63.1714C22.9168 63.1714 12.5426 52.7972 12.5426 40H12.2426Z" fill="#F3F3F3"/>
</g>
<path id="Subtract_3" fill-rule="evenodd" clip-rule="evenodd" d="M46.2443 40.7455C46.8161 40.3022 47.3559 39.9068 47.8283 39.5722C37.306 38.2139 37.1336 37.0332 35.9395 28.857C35.8262 28.0816 35.7038 27.2433 35.5625 26.3359C35.4461 27.0846 35.3414 27.7864 35.2432 28.4447C33.8293 37.924 33.7592 38.3938 19.3125 40.0502C33.7592 41.7066 33.8293 42.1764 35.2432 51.6557C35.3414 52.314 35.4461 53.0158 35.5625 53.7645C35.7037 52.8578 35.8261 52.02 35.9393 51.2451C37.0704 43.5006 37.2843 42.036 46.2443 40.7455Z" fill="#00C288"/>
<path id="Vector" d="M14.4421 47.3356C9.6564 51.6499 7.71354 55.4427 9.09926 58.3784C12.0278 64.5999 29.1921 62.6927 47.4278 54.107C48.8778 53.4284 49.3373 53.2919 50.7016 52.5705L47.9749 47.962C46.6249 48.6548 46.2278 49.0784 44.7993 49.7499C27.9207 57.6927 12.5921 60.6284 10.5564 56.307C9.69926 54.4856 11.3921 51.6642 14.8493 48.4213C16.1778 47.1284 17.1421 46.5642 17.1421 46.5642C17.1421 46.5642 16.9635 46.0499 16.7993 45.5284C15.2778 46.507 14.435 47.3356 14.435 47.3356H14.4421Z" fill="#696969"/>
<g id="Group">
<path id="Vector_2" d="M52.4343 39.4995C51.2415 39.1566 50.5415 38.8923 50.1343 38.6995C49.7557 38.5209 49.3129 38.5566 48.9629 38.7923C47.5843 39.7066 44.2343 42.0495 41.9629 44.6995L47.2945 45.9334L52.4343 39.4995Z" stroke="#F3F3F3" stroke-width="0.8" stroke-linecap="round" stroke-linejoin="round"/>
<path id="Vector_3" d="M49.1124 49.3995L47.8552 47.2566C47.4981 46.6495 47.5124 45.8923 47.8981 45.3066C49.3409 43.1352 53.3481 37.7923 60.2195 33.7638C69.0409 28.5852 78.4409 31.2995 79.1552 32.5066C79.8695 33.7209 77.6552 43.2495 68.8338 48.4281C61.9695 52.4566 55.3481 53.3566 52.7481 53.5566C52.0481 53.6138 51.3766 53.2495 51.0266 52.6423L49.7695 50.4995L49.1195 49.3995H49.1124Z" stroke="#F3F3F3" stroke-width="0.8" stroke-linecap="round" stroke-linejoin="round"/>
<path id="Vector_4" opacity="0.3" d="M64.9195 50.3427C64.6267 50.5141 62.5338 47.4784 60.2338 43.5641C57.9552 39.6784 56.341 36.3998 56.5981 36.1855C51.7767 39.8284 48.891 43.7855 47.791 45.457C47.4624 45.957 47.4552 46.5784 47.7552 47.0927L49.1052 49.3927L49.7552 50.4927C50.141 51.1427 50.7124 52.1213 51.1124 52.7998C51.4124 53.307 51.9552 53.5998 52.5481 53.557C54.541 53.4141 59.4195 52.8284 64.9695 50.3784L64.9195 50.3284V50.3427Z" stroke="#F3F3F3" stroke-width="0.7" stroke-linecap="round" stroke-linejoin="round"/>
<path id="Vector_5" opacity="0.3" d="M79.1489 32.5066C78.7203 31.7709 75.0775 30.4923 70.3203 30.7494C70.6989 30.528 72.3632 32.6566 74.0417 35.5066C75.6917 38.3209 76.7275 40.7709 76.3917 41.0494C78.9275 37.028 79.5846 33.2352 79.1489 32.4994V32.5066Z" stroke="#F3F3F3" stroke-width="0.7" stroke-linecap="round" stroke-linejoin="round"/>
<path id="Vector_6" d="M61.2002 38.5366L61.2 38.536C60.8923 37.8532 60.9812 37.0724 61.4196 36.3429C61.8593 35.6113 62.6448 34.9475 63.6837 34.547C64.7217 34.1468 65.7918 34.098 66.6762 34.3298C67.5624 34.562 68.2344 35.0659 68.5411 35.75L68.5414 35.7506C68.8491 36.4334 68.7601 37.2142 68.3217 37.9437C67.8821 38.6752 67.0966 39.3391 66.0577 39.7396C65.0197 40.1398 63.9495 40.1886 63.0651 39.9568C62.1789 39.7246 61.507 39.2207 61.2002 38.5366Z" fill="#F3F3F3" stroke="#F3F3F3" stroke-width="0.7"/>
<path id="Vector_7" d="M59.753 52.2811C59.4745 53.4883 59.2335 54.7057 59.1978 55.1486C59.1692 55.57 58.9263 55.9343 58.5478 56.1271C57.0763 56.8843 49.8906 59.6914 49.8906 59.6914L51.3835 54.1843C51.4501 54.0394 51.9729 53.896 52.202 53.6091C52.202 53.6091 54.0744 53.4866 55.9775 53.1539C57.4682 52.8933 59.753 52.2811 59.753 52.2811Z" stroke="#F3F3F3" stroke-width="0.8" stroke-linecap="round" stroke-linejoin="round"/>
</g>
<path id="Vector_8" d="M55.2924 70.8212C55.2924 72.2335 54.1475 73.3783 52.7353 73.3783C51.323 73.3783 50.1781 72.2335 50.1781 70.8212C50.1781 69.4089 51.323 68.2641 52.7353 68.2641C54.1475 68.2641 55.2924 69.4089 55.2924 70.8212Z" stroke="#F3F3F3" stroke-width="0.7"/>
</g>
</g>
<defs>
<clipPath id="clip0_533_17045">
<rect width="80" height="80" fill="white"/>
</clipPath>
</defs>
</svg>
