<svg width="80" height="80" viewBox="0 0 80 80" fill="none" xmlns="http://www.w3.org/2000/svg">
<g id="&#229;&#133;&#179;&#228;&#186;&#142;&#230;&#136;&#145;&#228;&#187;&#172;&#233;&#161;&#181;&#233;&#157;&#162;&#230;&#143;&#146;&#229;&#155;&#190;-_community">
<g id="Subtract">
<path fill-rule="evenodd" clip-rule="evenodd" d="M25.2009 34.2861H54.7986C56.4876 34.2861 57.8569 35.6179 57.8569 37.2608V42.74C57.8569 44.3829 56.4876 45.7147 54.7986 45.7147H25.2009C23.5118 45.7147 22.1426 44.3829 22.1426 42.74V37.2608C22.1426 35.6179 23.5118 34.2861 25.2009 34.2861ZM30.4638 40.8016C30.4638 41.9299 29.5492 42.8445 28.4209 42.8445C27.2927 42.8445 26.3781 41.9299 26.3781 40.8016C26.3781 39.6734 27.2927 38.7588 28.4209 38.7588C29.5492 38.7588 30.4638 39.6734 30.4638 40.8016Z" fill="#00C288"/>
<path d="M54.7986 34.1361H25.2009V34.4361H54.7986V34.1361ZM58.0069 37.2608C58.0069 35.5312 56.5665 34.1361 54.7986 34.1361V34.4361C56.4087 34.4361 57.7069 35.7047 57.7069 37.2608H58.0069ZM58.0069 42.74V37.2608H57.7069V42.74H58.0069ZM54.7986 45.8647C56.5665 45.8647 58.0069 44.4696 58.0069 42.74H57.7069C57.7069 44.2962 56.4087 45.5647 54.7986 45.5647V45.8647ZM25.2009 45.8647H54.7986V45.5647H25.2009V45.8647ZM21.9926 42.74C21.9926 44.4696 23.4329 45.8647 25.2009 45.8647V45.5647C23.5907 45.5647 22.2926 44.2962 22.2926 42.74H21.9926ZM21.9926 37.2608V42.74H22.2926V37.2608H21.9926ZM25.2009 34.1361C23.4329 34.1361 21.9926 35.5312 21.9926 37.2608H22.2926C22.2926 35.7047 23.5907 34.4361 25.2009 34.4361V34.1361ZM28.4209 42.9945C29.632 42.9945 30.6138 42.0127 30.6138 40.8016H30.3138C30.3138 41.847 29.4663 42.6945 28.4209 42.6945V42.9945ZM26.2281 40.8016C26.2281 42.0127 27.2098 42.9945 28.4209 42.9945V42.6945C27.3755 42.6945 26.5281 41.847 26.5281 40.8016H26.2281ZM28.4209 38.6088C27.2098 38.6088 26.2281 39.5906 26.2281 40.8016H26.5281C26.5281 39.7562 27.3755 38.9088 28.4209 38.9088V38.6088ZM30.6138 40.8016C30.6138 39.5906 29.632 38.6088 28.4209 38.6088V38.9088C29.4663 38.9088 30.3138 39.7562 30.3138 40.8016H30.6138Z" fill="#F3F3F3"/>
</g>
<g id="Subtract_2">
<path fill-rule="evenodd" clip-rule="evenodd" d="M47.4415 25.5361H19.2211C15.864 25.5361 13.1426 28.2576 13.1426 31.6147V48.5861C13.1426 51.9432 15.864 54.6647 19.2211 54.6647H20.375C21.1763 54.6258 22.0439 54.4487 22.9424 54.1647H19.2211C16.1402 54.1647 13.6426 51.6671 13.6426 48.5861V31.6147C13.6426 28.5337 16.1402 26.0361 19.2211 26.0361H47.1069C47.2344 25.864 47.3457 25.6974 47.4415 25.5361ZM57.1868 26.0361H60.9069C63.9878 26.0361 66.4854 28.5337 66.4854 31.6147V48.5861C66.4854 51.6671 63.9878 54.1647 60.9069 54.1647H33.0178C32.8905 54.3368 32.7796 54.5035 32.6841 54.6647H60.9069C64.264 54.6647 66.9854 51.9432 66.9854 48.5861V31.6147C66.9854 28.2576 64.264 25.5361 60.9069 25.5361H59.7671C58.9622 25.5737 58.0902 25.751 57.1868 26.0361Z" fill="#F3F3F3"/>
<path d="M47.4415 25.5361L47.5705 25.6128C47.598 25.5664 47.5986 25.5088 47.5719 25.462C47.5452 25.4151 47.4955 25.3861 47.4415 25.3861V25.5361ZM20.375 54.6647V54.8149L20.3823 54.8145L20.375 54.6647ZM22.9424 54.1647L22.9876 54.3077C23.0581 54.2854 23.1019 54.215 23.0906 54.1418C23.0793 54.0687 23.0164 54.0147 22.9424 54.0147V54.1647ZM47.1069 26.0361V26.1861C47.1544 26.1861 47.1991 26.1636 47.2274 26.1254L47.1069 26.0361ZM57.1868 26.0361L57.1417 25.8931C57.0711 25.9154 57.0273 25.9858 57.0386 26.059C57.0498 26.1321 57.1128 26.1861 57.1868 26.1861V26.0361ZM33.0178 54.1647V54.0147C32.9702 54.0147 32.9254 54.0373 32.8972 54.0755L33.0178 54.1647ZM32.6841 54.6647L32.5551 54.5882C32.5276 54.6346 32.5271 54.6921 32.5538 54.739C32.5805 54.7858 32.6302 54.8147 32.6841 54.8147V54.6647ZM59.7671 25.5361V25.386L59.7601 25.3863L59.7671 25.5361ZM47.4415 25.3861H19.2211V25.6861H47.4415V25.3861ZM19.2211 25.3861C15.7812 25.3861 12.9926 28.1748 12.9926 31.6147H13.2926C13.2926 28.3404 15.9469 25.6861 19.2211 25.6861V25.3861ZM12.9926 31.6147V48.5861H13.2926V31.6147H12.9926ZM12.9926 48.5861C12.9926 52.0261 15.7812 54.8147 19.2211 54.8147V54.5147C15.9469 54.5147 13.2926 51.8604 13.2926 48.5861H12.9926ZM19.2211 54.8147H20.375V54.5147H19.2211V54.8147ZM20.3823 54.8145C21.1997 54.7748 22.0803 54.5945 22.9876 54.3077L22.8972 54.0217C22.0074 54.3029 21.1529 54.4767 20.3677 54.5149L20.3823 54.8145ZM22.9424 54.0147H19.2211V54.3147H22.9424V54.0147ZM19.2211 54.0147C16.223 54.0147 13.7926 51.5842 13.7926 48.5861H13.4926C13.4926 51.7499 16.0573 54.3147 19.2211 54.3147V54.0147ZM13.7926 48.5861V31.6147H13.4926V48.5861H13.7926ZM13.7926 31.6147C13.7926 28.6166 16.223 26.1861 19.2211 26.1861V25.8861C16.0573 25.8861 13.4926 28.4509 13.4926 31.6147H13.7926ZM19.2211 26.1861H47.1069V25.8861H19.2211V26.1861ZM47.2274 26.1254C47.3577 25.9496 47.4718 25.7788 47.5705 25.6128L47.3126 25.4595C47.2196 25.616 47.1112 25.7784 46.9864 25.9468L47.2274 26.1254ZM57.1868 26.1861H60.9069V25.8861H57.1868V26.1861ZM60.9069 26.1861C63.905 26.1861 66.3354 28.6166 66.3354 31.6147H66.6354C66.6354 28.4509 64.0707 25.8861 60.9069 25.8861V26.1861ZM66.3354 31.6147V48.5861H66.6354V31.6147H66.3354ZM66.3354 48.5861C66.3354 51.5842 63.905 54.0147 60.9069 54.0147V54.3147C64.0707 54.3147 66.6354 51.7499 66.6354 48.5861H66.3354ZM60.9069 54.0147H33.0178V54.3147H60.9069V54.0147ZM32.8972 54.0755C32.7672 54.2514 32.6534 54.4222 32.5551 54.5882L32.8132 54.7412C32.9058 54.5847 33.0139 54.4223 33.1384 54.2539L32.8972 54.0755ZM32.6841 54.8147H60.9069V54.5147H32.6841V54.8147ZM60.9069 54.8147C64.3468 54.8147 67.1354 52.0261 67.1354 48.5861H66.8354C66.8354 51.8604 64.1811 54.5147 60.9069 54.5147V54.8147ZM67.1354 48.5861V31.6147H66.8354V48.5861H67.1354ZM67.1354 31.6147C67.1354 28.1748 64.3468 25.3861 60.9069 25.3861V25.6861C64.1811 25.6861 66.8354 28.3404 66.8354 31.6147H67.1354ZM60.9069 25.3861H59.7671V25.6861H60.9069V25.3861ZM59.7601 25.3863C58.939 25.4247 58.0538 25.6052 57.1417 25.8931L57.232 26.1792C58.1265 25.8968 58.9855 25.7228 59.7741 25.686L59.7601 25.3863Z" fill="#F3F3F3"/>
</g>
<g id="Group">
<path id="Vector" d="M9.22931 57.3499C8.84359 56.6856 8.47931 55.9999 8.14359 55.2999C1.57217 41.7356 4.24359 22.6499 18.8507 12.0713" stroke="#F3F3F3" stroke-width="0.7" stroke-linecap="round" stroke-linejoin="round"/>
<path id="Vector_2" d="M19.9578 54.4144C24.6149 54.4787 31.8792 49.6358 34.1292 46.1144C34.1292 46.1144 39.6078 47.2715 33.8149 53.2358C29.7292 57.443 34.372 58.8572 37.1078 59.0715C42.1363 59.4715 47.1506 58.8215 52.1363 57.5358C56.8506 56.3215 56.8578 57.6644 56.9363 58.9072C57.5506 68.9501 51.5149 73.1858 48.3792 74.1358C44.5506 75.3001 40.2935 76.1572 32.9792 74.893C27.5935 73.9644 23.0078 71.6644 19.2363 68.7787" stroke="#F3F3F3" stroke-width="0.7" stroke-linecap="round" stroke-linejoin="round"/>
<path id="Vector_3" d="M68.9079 19.757C69.6579 20.807 70.3222 21.8427 70.9007 22.8427C78.8079 36.4712 76.6436 56.9998 61.2793 68.1284" stroke="#F3F3F3" stroke-width="0.7" stroke-linecap="round" stroke-linejoin="round"/>
<path id="Vector_4" d="M60.1725 25.7859C55.5154 25.7216 48.2511 30.5644 46.0011 34.0859C46.0011 34.0859 40.5225 32.9287 46.3154 26.9644C50.4011 22.7573 45.7582 21.343 43.0225 21.1287C37.9939 20.7287 32.9797 21.3787 27.9939 22.6644C23.2797 23.8787 23.2725 22.5359 23.1939 21.293C22.5797 11.2502 28.6154 7.01445 31.7511 6.06445C35.5797 4.90016 39.8368 4.04302 47.1511 5.3073C52.5368 6.23588 57.1225 8.53587 60.8939 11.4216" stroke="#F3F3F3" stroke-width="0.7" stroke-linecap="round" stroke-linejoin="round"/>
</g>
<path id="Vector_5" d="M63.2793 20.236L65.4507 18.6003C65.9222 18.2503 66.4864 18.0574 67.0722 18.0574H74.465C75.3222 18.0574 76.015 17.3646 76.015 16.5074V10.4074C76.015 9.55028 75.3222 8.85742 74.465 8.85742H64.8293C63.9722 8.85742 63.2793 9.55028 63.2793 10.4074V20.236Z" stroke="#F3F3F3" stroke-width="0.7" stroke-linecap="round" stroke-linejoin="round"/>
<path id="Vector_6" d="M17.6864 67.4574L16.2364 66.3646C15.7864 66.0289 15.2435 65.8432 14.6864 65.8432H9.57924C8.85067 65.8432 8.25781 65.2503 8.25781 64.5217V60.3574C8.25781 59.6289 8.85067 59.036 9.57924 59.036H16.365C17.0935 59.036 17.6864 59.6289 17.6864 60.3574V67.4574Z" fill="#F3F3F3" stroke="#F3F3F3" stroke-width="0.7" stroke-linecap="round" stroke-linejoin="round"/>
</g>
</svg>
