<svg width="128" height="128" viewBox="0 0 128 128" fill="none" xmlns="http://www.w3.org/2000/svg">
<rect width="128" height="128" rx="64" fill="#BBFFF5"/>
<path d="M101.442 51.2269C102.884 54.2231 104.165 57.3403 104.691 60.6456C104.96 62.3386 104.853 63.9241 104.879 65.617C104.879 66.0604 104.556 66.8129 104.664 67.216L104.435 68.2371C105.661 66.6919 105.81 66.4098 104.906 67.4041C100.39 71.5021 95.2808 74.1356 89.457 75.9898C77.0407 79.9669 63.546 80.8806 50.5636 80.679C43.7556 80.5716 36.1656 80.5581 30.2474 76.7422C26.7827 74.5118 24.6931 71.4215 24.0325 67.3503C23.6281 64.8243 23.7629 62.3117 24.1943 59.7992C24.41 58.5362 25.0975 56.0639 25.0975 56.0639L22.8327 58.469C24.0325 58.4152 26.203 56.9238 27.4837 56.5207C29.789 55.7952 32.1482 55.2712 34.5074 54.7471C40.8571 53.3632 47.2742 52.3152 53.6912 51.3612C64.8267 49.6951 76.2049 47.8141 87.4617 47.3035C89.9692 47.196 91.7083 38.0459 92.8542 37.9922C79.71 38.5699 66.404 40.8138 53.4486 42.9233C46.317 44.0788 38.9293 45.1671 32.0539 47.4647C27.0793 49.1308 25.2054 52.1002 22.8057 56.7626C18.8692 64.4615 15.1484 76.4332 21.889 83.6619C28.0499 90.2591 38.7406 89.95 47.072 89.9903C62.5215 90.0441 80.3302 88.9692 94.0001 81.0284C100.471 77.2662 104.677 71.2468 107.872 64.5959C111.607 56.8432 110.447 49.507 106.794 41.9021C107.347 43.0576 100.269 48.8755 101.401 51.2134L101.442 51.2269Z" fill="#0E5666"/>
</svg>
