<svg width="72" height="72" viewBox="0 0 72 72" fill="none" xmlns="http://www.w3.org/2000/svg">
<rect width="72" height="72" fill="#26A17B"/>
<path d="M40.865 37.4216V37.4161C40.6199 37.4325 39.3549 37.5036 36.5399 37.5036C34.289 37.5036 32.7106 37.4435 32.1521 37.4161V37.4216C23.4963 37.0553 17.04 35.6118 17.04 33.8786C17.04 32.1508 23.502 30.7019 32.1521 30.3355V35.9836C32.7163 36.0219 34.3403 36.1148 36.5798 36.1148C39.2694 36.1148 40.6142 36.0055 40.865 35.9836V30.341C49.5037 30.7128 55.9429 32.1563 55.9429 33.884C55.9429 35.6118 49.498 37.0552 40.865 37.427M40.865 29.756V24.7039H52.917V17H20.1058V24.7039H32.1578V29.756C22.3623 30.1879 15 32.0469 15 34.2777C15 36.5085 22.368 38.3675 32.1578 38.8049V55H40.8707V38.8049C50.6491 38.3729 58 36.514 58 34.2832C58 32.0578 50.6491 30.1934 40.8707 29.7614" fill="white"/>
</svg>
